<svg width="26" height="28" viewBox="0 0 26 28" fill="none" xmlns="http://www.w3.org/2000/svg">
<path d="M24.2354 19.8349H7.95225L8.76982 17.8184L22.3542 17.7886C22.8136 17.7886 23.2073 17.3912 23.2894 16.8416L25.1706 4.09028C25.2198 3.75585 25.146 3.41149 24.9655 3.14991C24.8763 3.02117 24.7651 2.91747 24.6395 2.846C24.5139 2.77453 24.377 2.737 24.2382 2.73601L6.95693 2.66648L6.80928 1.82544C6.71631 1.28903 6.31709 0.898315 5.86318 0.898315H1.63857C1.38258 0.898315 1.13707 1.02146 0.95605 1.24066C0.775034 1.45986 0.67334 1.75716 0.67334 2.06716C0.67334 2.37715 0.775034 2.67445 0.95605 2.89365C1.13707 3.11285 1.38258 3.236 1.63857 3.236H5.08115L5.72646 6.95112L7.31514 16.2654L5.26982 20.3084C5.16361 20.482 5.09963 20.6881 5.08514 20.9034C5.07064 21.1188 5.1062 21.3347 5.18779 21.5269C5.35186 21.9209 5.68271 22.1692 6.04912 22.1692H7.76631C7.40023 22.758 7.20249 23.4752 7.20303 24.2122C7.20303 26.0863 8.46084 27.6095 10.0085 27.6095C11.5562 27.6095 12.814 26.0863 12.814 24.2122C12.814 23.4738 12.6116 22.7553 12.2507 22.1692H16.6558C16.2897 22.758 16.0919 23.4752 16.0925 24.2122C16.0925 26.0863 17.3503 27.6095 18.8979 27.6095C20.4456 27.6095 21.7034 26.0863 21.7034 24.2122C21.7034 23.4738 21.5011 22.7553 21.1401 22.1692H24.2382C24.7687 22.1692 25.2034 21.6461 25.2034 21.0004C25.2018 20.6907 25.0992 20.3944 24.9178 20.176C24.7365 19.9577 24.4912 19.835 24.2354 19.8349ZM7.35889 4.97105L23.1034 5.03396L21.5612 15.4906L9.19365 15.5171L7.35889 4.97105ZM10.0085 25.2586C9.53271 25.2586 9.14443 24.7884 9.14443 24.2122C9.14443 23.6361 9.53271 23.1659 10.0085 23.1659C10.4843 23.1659 10.8726 23.6361 10.8726 24.2122C10.8726 24.4897 10.7815 24.7559 10.6195 24.9521C10.4574 25.1483 10.2377 25.2586 10.0085 25.2586ZM18.8979 25.2586C18.4222 25.2586 18.0339 24.7884 18.0339 24.2122C18.0339 23.6361 18.4222 23.1659 18.8979 23.1659C19.3737 23.1659 19.762 23.6361 19.762 24.2122C19.762 24.4897 19.671 24.7559 19.5089 24.9521C19.3469 25.1483 19.1271 25.2586 18.8979 25.2586Z" fill="black"/>
</svg>
