<svg width="24" height="23" viewBox="0 0 24 23" fill="none" xmlns="http://www.w3.org/2000/svg">
<path d="M21.3332 11.547V4.48316H23.6665V12.9597H21.3332M21.3332 18.6108H23.6665V15.7853H21.3332M9.66652 12.9597C12.7815 12.9597 18.9999 14.8528 18.9999 18.6108V22.8491H0.333191V18.6108C0.333191 14.8528 6.55152 12.9597 9.66652 12.9597ZM9.66652 0.244873C10.9042 0.244873 12.0912 0.84025 12.9664 1.90003C13.8415 2.95981 14.3332 4.39717 14.3332 5.89593C14.3332 7.39468 13.8415 8.83205 12.9664 9.89182C12.0912 10.9516 10.9042 11.547 9.66652 11.547C8.42885 11.547 7.24186 10.9516 6.36669 9.89182C5.49152 8.83205 4.99986 7.39468 4.99986 5.89593C4.99986 4.39717 5.49152 2.95981 6.36669 1.90003C7.24186 0.84025 8.42885 0.244873 9.66652 0.244873ZM9.66652 15.644C6.20152 15.644 2.54986 17.7066 2.54986 18.6108V20.1648H16.7832V18.6108C16.7832 17.7066 13.1315 15.644 9.66652 15.644ZM9.66652 2.92912C9.01674 2.92912 8.39358 3.2417 7.93411 3.79808C7.47465 4.35446 7.21652 5.10908 7.21652 5.89593C7.21652 6.68277 7.47465 7.43739 7.93411 7.99377C8.39358 8.55016 9.01674 8.86273 9.66652 8.86273C10.3163 8.86273 10.9395 8.55016 11.3989 7.99377C11.8584 7.43739 12.1165 6.68277 12.1165 5.89593C12.1165 5.10908 11.8584 4.35446 11.3989 3.79808C10.9395 3.2417 10.3163 2.92912 9.66652 2.92912Z" fill="black"/>
</svg>
